<?xml version="1.0" standalone="no"?>
<!DOCTYPE svg PUBLIC "-//W3C//DTD SVG 20010904//EN"
 "http://www.w3.org/TR/2001/REC-SVG-20010904/DTD/svg10.dtd">
<svg version="1.0" xmlns="http://www.w3.org/2000/svg"
 width="512.000000pt" height="512.000000pt" viewBox="0 0 512.000000 512.000000"
 preserveAspectRatio="xMidYMid meet">

<g transform="translate(0.000000,512.000000) scale(0.100000,-0.100000)"
fill="#000000" stroke="none">
<path d="M3475 5111 l-60 -6 65 -13 c106 -23 238 -71 352 -129 402 -205 703
-588 823 -1047 98 -379 59 -906 -104 -1393 -239 -713 -760 -1392 -1513 -1967
-152 -116 -423 -298 -565 -381 -57 -33 -103 -63 -103 -66 0 -4 43 -29 95 -56
l95 -48 107 55 c461 237 974 620 1363 1016 227 231 367 401 518 626 344 515
525 1037 562 1623 23 354 -31 630 -180 930 -221 445 -631 760 -1095 840 -98
16 -279 25 -360 16z"/>
</g>
</svg>
