<?xml version="1.0" standalone="no"?>
<!DOCTYPE svg PUBLIC "-//W3C//DTD SVG 20010904//EN"
 "http://www.w3.org/TR/2001/REC-SVG-20010904/DTD/svg10.dtd">
<svg version="1.0" xmlns="http://www.w3.org/2000/svg"
 width="512.000000pt" height="512.000000pt" viewBox="0 0 512.000000 512.000000"
 preserveAspectRatio="xMidYMid meet">

<g transform="translate(0.000000,512.000000) scale(0.100000,-0.100000)"
fill="#000000" stroke="none">
<path d="M1085 3221 c-102 -25 -185 -126 -185 -225 0 -38 15 -61 48 -75 54
-22 90 5 107 82 14 68 103 93 144 41 12 -15 21 -38 21 -51 0 -14 13 -38 30
-55 25 -24 36 -29 58 -23 46 11 62 33 62 87 0 98 -66 184 -164 213 -53 16 -74
17 -121 6z"/>
<path d="M2507 3214 c-67 -21 -131 -86 -151 -155 -21 -70 -20 -83 7 -115 46
-53 118 -28 132 44 20 110 150 111 171 2 8 -43 21 -59 53 -71 58 -23 110 35
96 108 -27 145 -169 231 -308 187z"/>
<path d="M1653 2868 c-27 -13 -47 -59 -38 -87 3 -11 26 -38 51 -60 110 -97
282 -96 391 3 57 52 63 95 19 133 -37 31 -55 29 -111 -14 -43 -34 -54 -38
-105 -38 -50 0 -63 4 -98 32 -46 37 -78 46 -109 31z"/>
<path d="M3181 1794 c-17 -22 -21 -41 -21 -104 0 -95 20 -130 76 -130 59 0 74
25 74 130 0 77 -3 93 -20 110 -30 30 -83 27 -109 -6z"/>
<path d="M4360 1793 c-19 -25 -21 -38 -18 -111 3 -74 6 -86 27 -103 30 -24 72
-24 102 0 22 18 24 27 24 109 0 107 -14 132 -76 132 -29 0 -42 -6 -59 -27z"/>
<path d="M3500 1613 c-41 -52 -8 -162 63 -214 74 -54 165 -61 235 -19 32 19
32 19 69 -3 52 -30 141 -30 200 1 92 48 141 173 92 236 -38 48 -129 22 -129
-37 0 -36 -28 -67 -60 -67 -36 0 -56 20 -64 64 -17 88 -135 88 -152 0 -8 -44
-28 -64 -64 -64 -33 0 -60 31 -60 67 0 62 -90 86 -130 36z"/>
</g>
</svg>
