<?xml version="1.0" standalone="no"?>
<!DOCTYPE svg PUBLIC "-//W3C//DTD SVG 20010904//EN"
 "http://www.w3.org/TR/2001/REC-SVG-20010904/DTD/svg10.dtd">
<svg version="1.0" xmlns="http://www.w3.org/2000/svg"
 width="512.000000pt" height="512.000000pt" viewBox="0 0 512.000000 512.000000"
 preserveAspectRatio="xMidYMid meet">

<g transform="translate(0.000000,512.000000) scale(0.100000,-0.100000)"
fill="#000000" stroke="none">
<path d="M2580 5105 c-209 -34 -408 -124 -575 -260 -39 -32 -67 -46 -111 -55
-122 -25 -224 -89 -288 -183 l-38 -55 -32 13 c-185 77 -426 3 -539 -167 -59
-89 -80 -166 -75 -278 3 -85 8 -104 41 -173 60 -128 108 -166 373 -299 198
-100 224 -115 219 -133 -16 -53 -17 -165 -1 -216 12 -41 16 -111 19 -284 3
-201 7 -240 26 -305 30 -104 92 -225 153 -300 28 -35 46 -66 41 -67 -24 -8
-110 -75 -166 -130 -96 -93 -187 -221 -187 -263 0 -23 29 -60 54 -69 38 -14
74 8 110 67 39 64 90 126 83 101 -22 -70 -73 -680 -62 -735 16 -81 16 -82 -20
-94 -18 -6 -52 -24 -74 -41 -23 -16 -44 -29 -47 -29 -4 0 -5 117 -2 259 l6
260 -23 21 c-32 30 -81 24 -109 -13 -21 -28 -21 -31 -21 -834 l0 -805 24 -19
c30 -25 62 -24 94 2 l27 20 2 214 3 214 54 -34 c77 -49 144 -69 233 -69 l78
-1 0 -162 0 -162 26 -20 c35 -28 69 -26 99 4 25 24 25 26 25 209 l0 185 46 32
c55 37 128 133 151 198 l16 47 51 -34 c70 -48 144 -79 245 -105 118 -29 387
-31 506 -3 87 20 184 60 256 106 50 33 59 36 59 19 0 -5 11 -34 25 -64 30 -62
100 -144 150 -175 l35 -22 0 -184 c0 -183 0 -185 25 -209 31 -32 69 -32 100 0
24 24 25 28 25 182 l0 158 78 0 c90 1 160 22 232 70 l50 34 0 -193 c0 -115 4
-206 11 -225 19 -55 79 -69 118 -28 l22 24 -3 829 -3 829 -28 88 c-74 238
-192 392 -425 553 -2 1 20 33 49 71 64 84 122 202 150 308 18 66 23 127 31
340 11 317 11 345 -1 720 -7 240 -13 317 -29 385 -40 170 -105 316 -199 448
-52 74 -80 91 -120 73 -25 -11 -30 -9 -89 50 -57 57 -62 65 -57 95 5 30 1 39
-30 68 -72 68 -273 156 -439 192 -101 22 -322 27 -428 9z m-472 -496 c106 -53
165 -150 165 -272 l0 -70 -179 -359 c-98 -198 -182 -362 -186 -364 -12 -8
-705 344 -743 377 -20 18 -48 55 -63 83 -23 44 -27 63 -27 136 0 73 4 92 27
136 82 155 258 206 431 124 91 -43 113 -35 164 62 41 78 104 140 166 162 23 8
74 15 113 15 60 1 80 -4 132 -30z m924 -751 c68 -98 80 -102 296 -106 l184 -4
-5 -361 c-3 -297 -7 -374 -21 -427 -23 -90 -97 -235 -148 -293 l-43 -48 -70
15 c-43 10 -122 16 -204 16 -125 0 -136 -2 -158 -22 -28 -26 -30 -67 -4 -99
18 -23 27 -24 173 -31 99 -4 172 -12 208 -23 230 -72 404 -250 466 -477 17
-63 58 -622 50 -690 -7 -63 -46 -136 -96 -182 -40 -36 -107 -72 -116 -63 -3 2
0 24 6 48 32 136 22 384 -26 617 -25 123 -93 352 -121 405 -25 50 -94 55 -129
9 -19 -25 -17 -46 12 -126 38 -106 92 -318 110 -436 25 -154 22 -372 -5 -475
-59 -223 -192 -353 -413 -402 -110 -25 -339 -22 -441 6 -212 56 -335 181 -394
401 -24 91 -24 357 1 495 24 131 69 306 106 407 17 47 27 90 24 104 -14 54
-83 76 -124 39 -24 -22 -98 -245 -130 -390 -50 -233 -64 -469 -36 -625 8 -41
12 -77 10 -79 -9 -10 -89 36 -125 73 -55 54 -81 109 -86 181 -7 87 25 567 44
655 35 169 132 313 276 412 120 82 244 118 407 118 94 0 103 2 125 25 30 30
32 64 4 99 -20 25 -23 26 -135 26 -65 0 -148 -7 -194 -16 l-80 -16 -21 23
c-91 106 -161 262 -179 400 -13 110 -13 396 0 404 6 4 44 74 85 156 l75 149
293 0 c170 0 308 4 329 10 48 14 88 48 128 110 18 28 36 50 40 50 5 0 28 -28
52 -62z m729 -303 c21 -13 46 -43 58 -67 55 -116 -3 -241 -126 -269 l-33 -7 0
190 0 191 32 -7 c18 -4 49 -17 69 -31z m-1968 -135 l77 -35 0 -86 0 -87 -33 7
c-64 15 -105 50 -132 113 -22 55 -19 136 5 126 4 -2 41 -19 83 -38z m2166
-1519 c75 -145 84 -191 89 -488 l4 -263 -52 35 c-29 19 -62 38 -74 41 -21 5
-22 9 -18 89 6 104 -25 587 -43 675 l-13 65 33 -38 c19 -22 52 -73 74 -116z
m-2201 -870 c72 -71 166 -120 245 -128 63 -6 67 -12 67 -99 0 -103 -55 -197
-147 -251 -62 -36 -181 -44 -250 -18 -196 75 -250 338 -100 482 41 40 91 72
113 73 7 0 39 -27 72 -59z m2169 17 c115 -79 155 -235 94 -364 -51 -109 -143
-164 -270 -164 -152 0 -284 128 -285 275 -1 80 9 105 43 105 85 0 233 77 294
152 37 46 53 45 124 -4z"/>
<path d="M2342 3467 c-22 -24 -30 -94 -16 -132 17 -44 99 -48 130 -7 21 27 17
105 -7 136 -27 34 -77 36 -107 3z"/>
<path d="M3081 3464 c-69 -87 33 -220 109 -144 15 15 20 33 20 75 0 67 -22 95
-74 95 -25 0 -40 -7 -55 -26z"/>
<path d="M2462 3027 c-36 -38 -29 -74 24 -125 152 -145 402 -145 560 0 52 48
59 90 21 126 -32 30 -70 28 -109 -7 -62 -54 -116 -75 -193 -75 -77 0 -127 20
-189 74 -42 37 -84 39 -114 7z"/>
<path d="M2345 1675 c-43 -42 -30 -140 22 -164 28 -13 59 -7 86 17 12 11 17
30 17 72 0 46 -4 60 -23 78 -31 29 -72 28 -102 -3z"/>
<path d="M3090 1682 c-16 -13 -24 -32 -28 -70 -4 -47 -2 -54 26 -82 36 -35 59
-38 95 -10 28 23 43 74 33 115 -15 60 -80 84 -126 47z"/>
<path d="M2675 1381 c-149 -37 -204 -182 -129 -338 50 -103 132 -163 223 -163
64 0 115 25 165 81 112 123 119 305 16 379 -62 44 -186 62 -275 41z"/>
</g>
</svg>
