<?xml version="1.0" standalone="no"?>
<!DOCTYPE svg PUBLIC "-//W3C//DTD SVG 20010904//EN"
 "http://www.w3.org/TR/2001/REC-SVG-20010904/DTD/svg10.dtd">
<svg version="1.0" xmlns="http://www.w3.org/2000/svg"
 width="512.000000pt" height="512.000000pt" viewBox="0 0 512.000000 512.000000"
 preserveAspectRatio="xMidYMid meet">

<g transform="translate(0.000000,512.000000) scale(0.100000,-0.100000)"
fill="#000000" stroke="none">
<path d="M476 5069 c-128 -30 -274 -147 -334 -267 -43 -87 -56 -158 -49 -272
13 -226 126 -390 384 -556 67 -44 173 -112 235 -152 113 -72 176 -125 255
-215 32 -36 49 -47 72 -47 33 0 47 15 101 110 47 84 168 196 332 309 179 122
264 195 327 278 181 241 143 545 -87 705 -77 53 -144 71 -272 72 -110 1 -118
0 -180 -31 -65 -32 -133 -88 -184 -153 l-27 -35 -17 25 c-69 103 -196 197
-306 226 -57 15 -190 17 -250 3z m247 -89 c107 -33 193 -108 260 -226 54 -95
77 -97 127 -10 91 160 221 229 387 206 144 -20 171 -43 180 -156 11 -123 -52
-256 -179 -381 -109 -108 -440 -372 -479 -383 -38 -10 -59 -6 -149 30 -30 12
-134 44 -231 70 -97 27 -221 68 -275 92 l-99 43 -38 75 c-97 193 -62 412 87
547 115 103 265 137 409 93z"/>
<path d="M2760 3955 c-36 -7 -113 -31 -173 -54 -143 -55 -182 -54 -419 4 -101
25 -196 44 -213 43 -26 -3 -32 -9 -48 -53 -26 -74 -19 -184 17 -253 52 -102
155 -189 278 -233 32 -12 58 -24 58 -26 0 -3 -39 -53 -86 -111 -128 -160 -129
-164 -35 -212 109 -54 198 -73 330 -67 64 3 124 7 135 9 13 2 27 -10 48 -44
l29 -46 -21 -34 c-11 -18 -20 -46 -20 -61 0 -36 24 -83 50 -97 18 -10 18 -12
3 -48 -9 -20 -24 -71 -33 -112 l-16 -75 -44 -7 c-142 -24 -278 -155 -325 -313
l-12 -40 -287 -5 c-283 -5 -288 -5 -306 -27 -38 -48 -241 -557 -263 -660 -16
-78 -6 -85 172 -117 80 -15 147 -28 149 -31 3 -2 6 -198 7 -435 1 -358 4 -433
16 -445 42 -41 631 -191 1299 -330 90 -19 182 -35 203 -35 37 0 223 66 872
312 132 50 247 97 256 105 14 12 17 62 21 413 3 220 7 402 9 405 3 2 138 26
302 54 163 27 301 52 307 56 23 14 9 57 -34 103 -57 63 -203 241 -354 434 -68
87 -131 162 -141 168 -15 8 -288 29 -381 30 -23 0 -27 8 -48 83 -51 185 -169
375 -321 520 -46 43 -81 80 -79 81 2 1 29 7 61 14 32 6 74 21 94 33 l36 22 -6
76 c-10 121 -94 515 -140 651 l-42 125 -144 72 c-296 147 -550 200 -761 158z
m196 -180 c6 -60 16 -187 23 -280 11 -174 32 -284 71 -372 19 -43 19 -46 3
-60 -30 -23 -236 -122 -268 -129 -28 -5 -32 -2 -57 50 -26 53 -27 55 -8 61 22
7 27 44 8 63 -16 16 -44 15 -95 -3 -84 -29 -180 -39 -258 -27 -80 13 -185 48
-185 63 0 5 43 63 96 129 122 153 123 165 14 195 -138 39 -225 91 -280 167
-16 22 -30 44 -30 47 0 4 20 12 44 19 55 14 101 53 118 98 8 23 17 33 28 29 8
-2 53 -14 100 -25 125 -29 186 -26 305 16 186 66 213 72 300 70 l60 -1 11
-110z m192 -804 l21 -29 -47 -31 c-74 -47 -150 -79 -259 -107 -106 -28 -133
-27 -133 4 0 26 12 33 98 61 40 14 119 48 175 76 56 29 107 53 113 54 5 0 20
-12 32 -28z m156 -116 c53 -26 155 -55 191 -55 31 0 179 -123 255 -212 105
-122 200 -300 235 -440 l7 -28 -319 0 -318 0 -64 90 c-162 229 -367 336 -548
284 l-22 -6 19 69 c35 129 42 143 69 149 139 27 342 106 406 157 26 21 29 21
89 -8z m-320 -474 c77 -38 180 -129 225 -200 17 -26 31 -51 31 -54 0 -4 -58
-7 -130 -7 -128 0 -130 0 -130 23 0 28 -36 87 -53 87 -39 0 -45 -43 -23 -178
16 -100 8 -147 -30 -181 -24 -20 -36 -23 -81 -19 -123 10 -180 115 -153 281
21 132 68 233 123 268 48 30 135 22 221 -20z m-379 -43 c-36 -78 -55 -161 -62
-268 -6 -86 -9 -97 -34 -122 -53 -54 -138 -26 -159 51 -21 78 25 214 100 295
41 45 128 96 161 96 16 0 16 -5 -6 -52z m-350 -340 c12 -54 43 -105 82 -135
32 -25 45 -28 107 -28 57 0 77 4 102 22 l31 22 34 -35 c58 -60 103 -79 194
-79 135 0 184 48 193 192 l5 73 89 0 c77 0 89 -2 84 -15 -3 -9 -60 -182 -127
-385 l-121 -370 -61 0 c-221 0 -985 82 -1313 141 l-61 11 29 90 c43 136 113
326 156 425 l38 88 170 5 c93 3 213 7 266 8 l96 2 7 -32z m2197 18 c10 -5 86
-99 170 -209 84 -111 180 -237 215 -279 l62 -77 -31 -6 c-16 -4 -244 -38 -507
-75 l-476 -68 -19 25 c-11 14 -138 175 -283 359 -145 183 -263 336 -263 340 0
9 1111 -1 1132 -10z m-847 -745 c196 -148 436 -313 618 -425 l77 -48 0 -143 0
-143 -87 -27 c-163 -50 -573 -195 -740 -260 -91 -36 -167 -65 -171 -65 -6 0 5
941 15 1172 l6 157 36 -30 c20 -16 131 -101 246 -188z m-374 -398 c-6 -257
-14 -527 -17 -599 l-6 -131 -131 23 c-206 36 -398 78 -717 159 -392 99 -521
133 -529 140 -9 10 -14 433 -6 563 7 106 8 112 28 112 20 0 297 -40 940 -136
131 -20 250 -33 264 -29 48 12 69 47 124 213 29 89 55 159 57 158 2 -2 -1
-215 -7 -473z"/>
<path d="M2750 3680 c-40 -40 -16 -100 40 -100 31 0 60 30 60 62 0 24 -35 58
-60 58 -11 0 -29 -9 -40 -20z"/>
<path d="M1555 3406 c-174 -57 -215 -76 -215 -95 0 -10 7 -24 15 -31 12 -10
43 -4 166 36 156 50 184 68 163 101 -6 9 -15 18 -20 19 -5 2 -54 -12 -109 -30z"/>
<path d="M1750 3152 c-25 -16 -85 -71 -133 -123 -75 -80 -87 -98 -85 -124 2
-22 9 -31 25 -33 33 -5 286 247 281 280 -4 33 -36 33 -88 0z"/>
</g>
</svg>
